<?xml version="1.0" standalone="no"?>
<!DOCTYPE svg PUBLIC "-//W3C//DTD SVG 20010904//EN"
 "http://www.w3.org/TR/2001/REC-SVG-20010904/DTD/svg10.dtd">
<svg version="1.0" xmlns="http://www.w3.org/2000/svg"
 width="294.000000pt" height="84.000000pt" viewBox="0 0 294.000000 84.000000"
 preserveAspectRatio="xMidYMid meet">

<g transform="translate(0.000000,84.000000) scale(0.100000,-0.100000)"
fill="#000000" stroke="none">
<path d="M72 817 c-18 -12 -41 -37 -52 -55 -19 -30 -20 -52 -20 -327 0 -278 1
-297 21 -334 40 -77 -76 -72 1461 -69 1306 3 1374 4 1400 21 55 38 58 58 58
382 0 344 -2 351 -77 385 -45 20 -68 20 -1402 19 l-1356 0 -33 -22z m963 -147
c3 -5 -3 -10 -14 -10 -18 0 -21 -6 -21 -39 0 -29 5 -41 18 -44 13 -4 12 -5 -5
-6 -42 -2 -56 56 -21 89 24 22 34 25 43 10z m225 -15 c10 -12 10 -18 -1 -32
-8 -9 -13 -24 -11 -35 5 -28 -14 -21 -28 11 -9 23 -9 33 2 50 15 25 21 26 38
6z m184 0 c18 -14 18 -16 2 -33 -9 -11 -14 -26 -10 -36 4 -11 1 -16 -10 -16
-13 0 -16 11 -16 50 0 53 4 58 34 35z m-1042 -26 c24 -11 52 -25 62 -31 106
-57 152 -83 154 -90 3 -7 72 -42 105 -52 48 -15 -4 -67 -82 -80 -30 -5 -39 -2
-62 24 -15 16 -30 30 -32 30 -2 0 -64 -58 -137 -130 -72 -72 -136 -130 -141
-130 -5 0 -9 88 -9 200 0 193 1 200 20 200 11 0 20 6 20 14 0 8 7 16 15 20 8
3 15 15 15 26 0 25 18 25 72 -1z m772 15 c20 -8 21 -44 2 -44 -8 0 -16 -7 -20
-15 -3 -8 -9 -15 -15 -15 -14 0 -21 41 -10 62 10 19 18 22 43 12z m196 -34 c0
-22 -4 -40 -10 -40 -11 0 -14 63 -3 73 11 12 13 8 13 -33z m248 -8 c2 -23 -1
-42 -6 -42 -16 0 -21 13 -12 30 7 13 5 21 -5 30 -19 16 -37 3 -33 -25 2 -13
-1 -25 -7 -27 -5 -2 -11 14 -13 34 -3 33 -1 37 25 41 44 6 48 3 51 -41z m130
9 c2 -18 -1 -38 -7 -44 -8 -8 -11 -5 -11 10 0 31 -10 53 -25 53 -14 0 -25 -22
-25 -51 0 -11 -4 -17 -10 -14 -11 7 -14 68 -4 78 4 3 23 5 43 4 33 -2 36 -5
39 -36z m-651 -7 c3 -8 -1 -23 -10 -32 -15 -14 -17 -14 -25 9 -6 16 -6 26 2
31 17 12 26 9 33 -8z m764 -299 c3 -106 2 -110 -18 -113 -21 -3 -22 1 -25 113
-3 116 4 147 28 123 8 -8 14 -53 15 -123z m-687 103 c5 -9 7 -21 2 -25 -4 -4
-12 0 -17 10 -6 9 -19 17 -29 17 -11 0 -20 5 -20 11 0 16 52 6 64 -13z m-174
-22 c0 -7 -5 -27 -11 -45 -9 -26 -8 -41 5 -76 9 -24 24 -46 31 -49 8 -3 15
-12 15 -21 0 -9 9 -15 26 -15 14 0 22 -4 19 -10 -11 -18 -98 23 -122 59 -24
36 -31 105 -12 116 5 4 14 18 19 31 10 26 30 33 30 10z m391 -65 c26 -20 32
-82 11 -103 -16 -16 -22 -8 -29 38 -3 22 -12 46 -19 55 -13 15 -10 29 7 29 4
0 17 -8 30 -19z m205 -6 c13 -19 20 -23 34 -15 14 8 22 2 43 -29 21 -32 30
-38 51 -34 22 5 26 2 26 -20 0 -14 7 -27 15 -31 17 -6 21 -71 5 -81 -6 -4 -10
5 -10 20 0 18 -7 28 -24 35 -13 4 -26 20 -30 33 -3 14 -14 27 -23 31 -10 3
-25 11 -34 17 -21 16 -49 5 -56 -21 -10 -37 -23 -20 -23 29 0 30 -6 55 -15 64
-8 8 -11 17 -8 21 13 13 33 5 49 -19z m179 -19 c0 -23 -5 -41 -12 -43 -8 -3
-13 4 -13 15 0 10 -9 27 -20 37 -24 22 -16 37 18 33 24 -3 27 -7 27 -42z m250
23 c0 -7 -8 -15 -17 -17 -18 -3 -25 18 -11 32 10 10 28 1 28 -15z m200 11 c3
-5 -3 -15 -15 -22 -27 -17 -26 -65 2 -87 21 -18 18 -41 -6 -41 -7 0 -17 -17
-23 -37 -9 -33 -11 -23 -12 73 0 61 2 114 6 117 10 10 41 8 48 -3z m83 -67 c3
-68 1 -73 -18 -73 -21 0 -26 10 -11 26 10 10 14 35 12 72 -1 15 -9 26 -21 29
-26 7 -14 25 13 21 20 -3 22 -10 25 -75z m250 0 c-3 -72 -5 -78 -23 -75 -27 5
-30 9 -15 27 27 33 -8 57 -51 35 -16 -9 -17 -14 -8 -31 19 -37 -6 -44 -30 -10
-19 26 -20 31 -6 31 8 0 18 7 21 15 4 9 19 15 38 15 18 0 37 5 43 11 15 15 5
39 -16 39 -14 0 -14 2 -1 10 8 5 23 10 33 10 16 0 18 -9 15 -77z m67 20 c-2
-8 -9 -11 -15 -8 -11 7 -14 48 -3 59 10 9 25 -34 18 -51z m-1355 28 c-7 -14
-6 -31 5 -61 18 -51 19 -60 4 -60 -16 0 -59 48 -59 65 0 24 12 45 26 45 8 0
14 7 14 15 0 8 5 15 10 15 7 0 7 -6 0 -19z m660 4 c0 -8 -2 -15 -4 -15 -2 0
-6 7 -10 15 -3 8 -1 15 4 15 6 0 10 -7 10 -15z m547 9 c-3 -3 -12 -4 -19 -1
-8 3 -5 6 6 6 11 1 17 -2 13 -5z m256 -1 c-7 -2 -13 -15 -13 -28 0 -30 -10
-55 -21 -55 -5 0 -9 13 -9 29 0 30 22 62 43 60 9 0 8 -2 0 -6z m-1263 -47 c0
-26 6 -48 15 -56 8 -7 15 -16 15 -21 0 -16 -30 -9 -50 11 -22 22 -26 60 -10
91 18 32 30 22 30 -25z m464 -2 c3 -9 6 -24 6 -34 0 -10 9 -22 20 -25 11 -3
20 -10 20 -15 0 -12 -23 -18 -42 -11 -21 8 -66 73 -60 89 6 18 49 15 56 -4z
m-740 -37 c8 -12 8 -22 0 -34 -21 -33 -34 -26 -34 17 0 43 13 50 34 17z m1474
4 c25 -22 29 -53 8 -73 -7 -8 -17 -24 -20 -36 -7 -22 -51 -41 -64 -28 -3 4 3
9 13 12 28 7 46 50 34 80 -11 30 -12 64 -1 64 4 -1 17 -9 30 -19z m-1008 -127
c0 -15 10 -24 33 -32 l32 -10 -30 -1 c-56 -2 -95 45 -63 77 14 14 28 -2 28
-34z"/>
<path d="M368 573 c7 -3 16 -2 19 1 4 3 -2 6 -13 5 -11 0 -14 -3 -6 -6z"/>
</g>
</svg>
