<?xml version="1.0" standalone="no"?>
<!DOCTYPE svg PUBLIC "-//W3C//DTD SVG 20010904//EN"
 "http://www.w3.org/TR/2001/REC-SVG-20010904/DTD/svg10.dtd">
<svg version="1.0" xmlns="http://www.w3.org/2000/svg"
 width="294.000000pt" height="84.000000pt" viewBox="0 0 294.000000 84.000000"
 preserveAspectRatio="xMidYMid meet">

<g transform="translate(0.000000,84.000000) scale(0.100000,-0.100000)"
fill="#000000" stroke="none">
<path d="M83 819 c-33 -15 -48 -30 -63 -64 -19 -41 -20 -64 -19 -322 0 -317 6
-351 70 -385 33 -17 95 -18 1409 -16 1308 3 1376 4 1402 21 55 38 58 58 58
384 0 344 -2 352 -81 384 -42 17 -117 18 -1389 18 -1321 0 -1346 0 -1387 -20z
m1852 -247 c-6 -24 -8 -25 -17 -9 -5 10 -7 30 -3 45 6 24 8 25 17 9 5 -10 7
-30 3 -45z m-973 -19 c2 -24 0 -43 -4 -43 -5 0 -7 26 -7 58 1 61 6 55 11 -15z
m-257 7 l25 -10 -2 -192 -3 -193 -30 -14 c-26 -12 -41 -12 -125 2 -189 34
-252 47 -278 59 -27 13 -27 13 -30 142 -3 149 -4 147 93 166 33 6 80 16 105
22 152 36 189 39 245 18z m575 6 c0 -8 7 -16 15 -20 17 -6 21 -36 5 -36 -5 0
-10 7 -10 15 0 9 -7 18 -15 21 -17 7 -21 34 -5 34 6 0 10 -6 10 -14z m714 -1
c-4 -8 -7 -15 -9 -15 -2 0 -5 7 -9 15 -3 9 0 15 9 15 9 0 12 -6 9 -15z m196
11 c0 -11 -19 -15 -25 -6 -3 5 1 10 9 10 9 0 16 -2 16 -4z m60 -5 c0 -17 -18
-21 -24 -6 -3 9 0 15 9 15 8 0 15 -4 15 -9z m-1180 -16 c10 -12 10 -15 -4 -15
-9 0 -16 7 -16 15 0 8 2 15 4 15 2 0 9 -7 16 -15z m651 -25 c-13 -13 -17 -14
-24 -2 -5 7 -6 20 -3 28 4 12 9 12 24 3 18 -11 18 -13 3 -29z m-484 -12 c-3
-7 -5 -2 -5 12 0 14 2 19 5 13 2 -7 2 -19 0 -25z m570 -4 c-3 -3 -12 -4 -19
-1 -8 3 -5 6 6 6 11 1 17 -2 13 -5z m-844 -185 c-8 -8 -13 -2 -18 20 -9 44 7
65 19 23 6 -22 6 -36 -1 -43z m137 15 c0 -13 -8 -25 -19 -29 -10 -3 -23 -15
-29 -28 -10 -21 -11 -20 -11 11 -1 18 6 49 15 70 15 35 16 36 30 18 8 -11 14
-30 14 -42z m490 -49 l0 -93 -50 -7 c-49 -7 -70 -2 -70 16 0 6 14 7 33 4 25
-5 39 -2 50 10 36 36 5 99 -44 93 -13 -2 -26 2 -29 7 -3 6 10 11 28 12 50 2
62 10 62 38 0 15 4 24 10 20 6 -3 10 -48 10 -100z m690 95 c0 -5 -13 -10 -30
-10 -47 0 -40 -36 15 -84 25 -22 45 -48 45 -57 0 -25 -38 -49 -77 -49 -48 0
-40 18 10 22 36 3 41 6 38 23 -1 11 -12 27 -23 35 -40 30 -68 61 -68 75 0 23
38 55 65 55 14 0 25 -4 25 -10z m-1098 -77 c-2 -24 -8 -43 -13 -43 -10 0 -12
44 -3 78 10 37 21 12 16 -35z m1201 34 c12 -19 12 -24 1 -35 -20 -18 -18 -89
2 -100 12 -7 13 -11 5 -17 -27 -16 -41 4 -41 59 0 30 -4 57 -10 61 -10 6 8 55
20 55 4 0 14 -10 23 -23z m-985 -47 c3 -34 2 -35 -10 -10 -27 51 -78 29 -78
-34 0 -17 -5 -38 -10 -46 -7 -11 -10 5 -10 52 l0 67 33 4 c64 8 72 5 75 -33z
m326 30 c16 -6 26 -17 26 -30 0 -26 -16 -26 -23 1 -4 16 -12 20 -39 17 -33 -3
-33 -4 -33 -53 0 -49 0 -50 33 -53 27 -3 35 1 39 17 3 12 9 19 13 16 15 -9 -2
-43 -23 -49 -60 -16 -87 6 -87 67 0 46 7 61 30 70 23 8 36 8 64 -3z m328 -11
c-30 -11 -27 -30 8 -54 16 -11 30 -28 30 -38 0 -22 -43 -42 -67 -32 -16 7 -15
9 7 14 31 8 38 37 12 45 -50 16 -63 71 -19 78 34 6 54 -4 29 -13z m482 11 c18
-6 26 -17 25 -32 l0 -23 -16 23 c-22 31 -70 30 -79 -2 -3 -13 -4 -37 -2 -52 3
-26 8 -29 41 -32 28 -2 37 1 37 12 0 8 5 18 10 21 17 10 11 -22 -7 -40 -19
-19 -81 -15 -94 6 -9 15 -10 92 -1 106 15 22 49 27 86 13z m281 -17 c20 -27 6
-53 -27 -53 -33 0 -68 -16 -68 -30 0 -5 18 -13 40 -16 44 -7 45 -24 2 -24 -61
0 -83 81 -35 126 30 28 67 26 88 -3z m-1565 -55 c0 -26 -4 -50 -10 -53 -6 -4
-10 19 -10 62 0 48 3 63 10 53 5 -8 10 -36 10 -62z m555 21 c-10 -32 -29 -6
-20 28 6 24 8 26 16 10 6 -10 7 -27 4 -38z m98 29 c8 -27 1 -38 -24 -38 -21 0
-24 12 -9 41 14 25 26 24 33 -3z m741 1 c-10 -11 -21 -41 -24 -67 -5 -36 -8
-42 -14 -27 -4 11 -11 27 -16 36 -4 9 -2 28 6 47 10 25 19 32 40 32 27 0 27 0
8 -21z m-1624 -49 c12 0 13 -57 2 -64 -17 -10 -35 14 -42 58 -8 54 -1 67 17
31 8 -14 18 -25 23 -25z m140 -29 c0 -9 -5 -23 -10 -31 -16 -25 -41 11 -48 66
l-5 49 32 -34 c17 -18 31 -41 31 -50z m308 32 c-3 -42 -21 -51 -26 -15 -4 29
4 52 18 52 7 0 10 -15 8 -37z m494 5 c-6 -39 -30 -80 -43 -72 -17 10 -9 53 11
64 11 6 20 17 20 25 0 8 4 15 8 15 5 0 6 -15 4 -32z m-114 -49 c-1 -12 -8 -24
-14 -26 -15 -5 -24 43 -11 56 15 15 29 -2 25 -30z"/>
<path d="M476 453 c-4 -5 -33 -10 -64 -13 l-57 -5 0 -75 0 -75 55 -7 c30 -3
74 -9 96 -13 41 -7 42 -6 49 23 3 17 2 39 -3 48 -6 11 -6 28 0 46 6 16 7 40 4
53 -5 20 -13 25 -40 25 -18 0 -36 -3 -40 -7z"/>
<path d="M2753 313 c-18 -7 -16 -30 4 -37 21 -8 38 8 30 28 -7 16 -13 18 -34
9z"/>
</g>
</svg>
