<?xml version="1.0" standalone="no"?>
<!DOCTYPE svg PUBLIC "-//W3C//DTD SVG 20010904//EN"
 "http://www.w3.org/TR/2001/REC-SVG-20010904/DTD/svg10.dtd">
<svg version="1.0" xmlns="http://www.w3.org/2000/svg"
 width="297.000000pt" height="84.000000pt" viewBox="0 0 297.000000 84.000000"
 preserveAspectRatio="xMidYMid meet">

<g transform="translate(0.000000,84.000000) scale(0.100000,-0.100000)"
fill="#000000" stroke="none">
<path d="M72 817 c-18 -12 -41 -37 -52 -55 -19 -30 -20 -52 -20 -327 0 -278 1
-297 21 -334 40 -77 -76 -72 1461 -69 1291 3 1375 4 1399 21 53 35 54 45 54
382 0 353 0 353 -73 385 -44 20 -74 20 -1401 19 l-1356 0 -33 -22z m549 -134
c4 -57 -36 -99 -90 -94 -32 3 11 84 54 102 30 12 35 11 36 -8z m809 -59 c0
-41 -4 -63 -10 -59 -18 11 -12 125 7 125 2 0 3 -30 3 -66z m318 -12 c-2 -26
-7 -47 -13 -47 -12 0 -19 69 -10 104 6 23 8 24 16 8 6 -9 9 -39 7 -65z m690
36 c28 4 38 -19 24 -61 -10 -31 -10 -31 -11 -6 -1 34 -28 59 -42 38 -5 -8 -9
-24 -9 -36 0 -13 -4 -23 -10 -23 -11 0 -14 113 -3 123 3 4 11 -3 18 -16 7 -15
18 -21 33 -19z m-1388 13 c11 -21 14 -81 4 -81 -3 0 -14 5 -24 10 -15 8 -21 6
-31 -11 -16 -30 -33 -10 -20 24 6 15 15 27 21 27 6 0 8 10 4 25 -5 21 -3 25
15 25 11 0 25 -9 31 -19z m574 4 c3 -8 17 -15 31 -15 21 0 25 -5 27 -30 0 -16
1 -35 2 -42 1 -6 -5 -13 -11 -15 -9 -3 -13 6 -13 26 0 16 -5 33 -11 37 -16 9
-29 -17 -22 -43 4 -17 1 -23 -11 -23 -13 0 -16 12 -16 60 0 57 11 78 24 45z
m-318 -51 c7 -27 -1 -54 -15 -54 -5 0 -11 9 -14 20 -3 11 -10 20 -16 20 -6 0
-11 -9 -11 -20 0 -21 -14 -27 -25 -11 -3 5 2 16 10 24 8 9 15 22 15 30 0 20 9
26 31 20 10 -3 22 -16 25 -29z m64 -9 c0 -25 -4 -45 -10 -45 -5 0 -10 20 -10
45 0 25 5 45 10 45 6 0 10 -20 10 -45z m186 -1 c9 -36 -11 -53 -26 -23 l-13
23 -14 -29 c-11 -20 -17 -24 -23 -15 -10 16 -2 40 12 40 6 0 7 8 4 17 -4 9 -1
20 6 24 18 11 47 -8 54 -37z m499 3 c0 -20 -4 -38 -10 -39 -5 -2 -9 10 -10 27
0 20 -6 31 -17 33 -15 3 -18 -4 -18 -32 0 -20 -4 -36 -9 -36 -33 0 -21 77 12
83 44 9 52 3 52 -36z m129 35 c2 -4 1 -14 -4 -22 -7 -11 -11 -11 -24 -1 -20
17 -36 6 -36 -25 0 -13 -4 -24 -10 -24 -5 0 -10 15 -10 34 0 28 4 35 23 39 39
7 56 7 61 -1z m156 -6 c0 -14 -34 -28 -44 -18 -15 14 -4 32 19 32 15 0 25 -6
25 -14z m-1172 -67 c-40 -26 -52 10 -15 49 l22 24 3 -33 c2 -19 -2 -35 -10
-40z m702 45 c0 -23 -3 -25 -24 -20 -16 4 -26 1 -30 -9 -8 -21 -23 -19 -29 5
-7 27 18 50 54 50 25 0 29 -4 29 -26z m715 1 c0 -14 -6 -19 -19 -18 -11 1 -27
-8 -37 -20 -16 -20 -18 -21 -24 -4 -4 9 -4 29 -1 43 6 22 11 25 44 22 29 -2
37 -7 37 -23z m-2015 -53 c64 9 108 2 133 -20 21 -19 22 -36 2 -52 -8 -7 -20
-30 -25 -51 -12 -44 3 -91 39 -123 11 -11 21 -26 21 -35 -1 -22 -49 -90 -82
-114 -25 -18 -32 -19 -80 -9 -36 8 -66 9 -93 2 -59 -14 -71 -12 -103 15 -34
29 -87 133 -97 191 -14 86 37 179 104 193 19 3 55 4 80 1 25 -3 71 -2 101 2z
m528 -135 c20 -23 92 -251 83 -260 -17 -17 -44 -2 -54 28 -12 36 -23 45 -58
45 -31 0 -69 -33 -69 -60 0 -15 -7 -20 -25 -20 -27 0 -30 7 -16 42 5 13 19 57
32 98 37 122 46 140 73 140 13 0 28 -6 34 -13z m837 -7 c0 -10 -10 -15 -30
-16 -61 -1 -65 -3 -65 -28 0 -24 44 -66 68 -66 16 0 52 -55 52 -80 0 -12 -14
-35 -30 -52 -28 -28 -35 -30 -85 -26 -62 5 -68 8 -59 31 4 12 14 15 35 10 57
-11 97 14 82 52 -3 9 -23 25 -45 36 -79 41 -100 90 -56 136 19 20 30 23 78 21
41 -2 55 -7 55 -18z m162 -60 c11 0 8 -8 -11 -31 -36 -43 -36 -101 1 -135 23
-21 25 -27 13 -34 -19 -12 -41 -12 -59 -1 -8 5 -17 38 -22 77 -4 38 -11 83
-14 101 -6 24 -2 36 16 54 l22 22 19 -26 c11 -15 26 -27 35 -27z m-691 -24
c41 -41 45 -90 13 -142 -21 -35 -71 -53 -106 -40 -21 8 -33 -10 -33 -51 0 -26
-4 -33 -19 -33 -27 0 -31 18 -31 150 0 128 7 146 53 135 14 -4 28 -2 31 4 14
22 58 11 92 -23z m234 14 c88 -62 40 -206 -65 -198 -40 3 -40 3 -45 -37 -4
-32 -9 -41 -27 -43 -23 -3 -23 -3 -23 143 l0 147 39 -7 c24 -4 42 -2 46 4 10
17 44 13 75 -9z m677 -15 c33 -33 35 -39 31 -84 -6 -63 -33 -92 -90 -98 -37
-4 -49 -1 -75 21 -57 48 -52 135 10 175 48 31 83 27 124 -14z m183 10 c0 -7
-13 -23 -30 -35 -28 -20 -30 -26 -30 -86 0 -62 -1 -65 -22 -62 -22 3 -23 9
-26 86 -3 91 7 117 42 108 12 -3 28 -1 36 4 17 10 30 4 30 -15z m190 -11 c19
-22 30 -44 28 -57 -3 -19 -11 -23 -65 -27 -71 -6 -79 -11 -61 -39 9 -15 23
-21 48 -21 47 0 66 -12 45 -30 -10 -8 -31 -11 -62 -7 -64 7 -93 40 -93 107 0
42 4 51 35 79 49 43 84 41 125 -5z"/>
<path d="M1052 338 c-21 -26 -18 -53 7 -56 31 -5 41 7 34 41 -6 29 -24 35 -41
15z"/>
<path d="M1315 318 c-27 -15 -35 -28 -35 -58 0 -54 60 -93 87 -57 42 53 1 144
-52 115z"/>
<path d="M1551 314 c-23 -17 -29 -71 -11 -105 14 -26 66 -26 80 0 35 66 -15
142 -69 105z"/>
<path d="M2212 307 c-12 -13 -22 -34 -22 -48 0 -63 74 -96 98 -44 16 34 15 50
-3 85 -19 36 -44 38 -73 7z"/>
<path d="M2596 315 c-14 -21 -14 -24 0 -29 40 -15 69 -2 58 27 -10 26 -42 27
-58 2z"/>
</g>
</svg>
